<?xml version="1.0" encoding="utf-8"?>
<!-- Generator: Adobe Illustrator 24.0.1, SVG Export Plug-In . SVG Version: 6.00 Build 0)  -->
<svg version="1.1" id="Layer_1" xmlns="http://www.w3.org/2000/svg" xmlns:xlink="http://www.w3.org/1999/xlink" x="0px" y="0px"
	 viewBox="0 0 64 64" style="enable-background:new 0 0 64 64;" xml:space="preserve">
<style type="text/css">
	.st0{fill:#FFFFFF;}
</style>
<path class="st0" d="M58.9,17.9c-0.8-0.8-2-0.8-2.8,0l-24,24l-24-24c-0.8-0.8-2-0.8-2.8,0c-0.8,0.8-0.8,2,0,2.8l25.5,25.5
	c0,0,0,0,0,0c0.4,0.4,0.9,0.6,1.4,0.6c0.1,0,0.3,0,0.4,0c0.4-0.1,0.7-0.3,1-0.5l25.5-25.5C59.7,19.9,59.7,18.6,58.9,17.9z"/>
</svg>
